<?xml version="1.0" encoding="UTF-8"?>
<svg width="184px" height="66px" viewBox="0 0 184 66" version="1.1" xmlns="http://www.w3.org/2000/svg" xmlns:xlink="http://www.w3.org/1999/xlink">
    <!-- Generator: Sketch 50.2 (55047) - http://www.bohemiancoding.com/sketch -->
    <title>logo</title>
    <desc>Created with Sketch.</desc>
    <defs>
        <linearGradient x1="78.1060178%" y1="10.3804694%" x2="9.10678635%" y2="82.912074%" id="linearGradient-1">
            <stop stop-color="#00A671" stop-opacity="0.386605525" offset="0%"></stop>
            <stop stop-color="#0FA171" offset="100%"></stop>
        </linearGradient>
        <linearGradient x1="2.2443572%" y1="82.7642481%" x2="58.8366871%" y2="10.4752224%" id="linearGradient-2">
            <stop stop-color="#FDFDFD" stop-opacity="0" offset="0%"></stop>
            <stop stop-color="#03A470" offset="100%"></stop>
        </linearGradient>
    </defs>
    <g id="Page-1" stroke="none" stroke-width="1" fill="none" fill-rule="evenodd">
        <g id="website" transform="translate(-405.000000, -45.000000)">
            <g id="logo" transform="translate(397.000000, 45.000000)">
                <g id="Group" transform="translate(77.545631, 7.819149)">
                    <path d="M4.76512482,43.7009928 L3.49590933,49.683166 L0,49.683166 L2.33802853,38.6973164 L5.83393786,38.6973164 L5.29953134,41.1880353 L10.9776006,41.1880353 L10.4431941,43.7009928 L4.76512482,43.7009928 Z M2.56069792,37.5853883 L3.18417219,34.6276596 L14.3399083,34.6276596 L13.7164341,37.5853883 L2.56069792,37.5853883 Z M15.6759246,49.683166 C14.918845,49.683166 14.3733104,49.5497359 14.0393047,49.2828719 C13.7052989,49.0160078 13.5382986,48.6083049 13.5382986,48.059751 C13.5382986,47.7780611 13.582832,47.444486 13.6719002,47.0590157 L15.7427255,37.2518099 C15.9357066,36.362263 16.2622851,35.7025255 16.7224707,35.2725779 C17.1826564,34.8426302 17.8951913,34.6276596 18.8600968,34.6276596 L26.3640551,34.6276596 C27.1211348,34.6276596 27.6629582,34.7610896 27.9895416,35.0279537 C28.316125,35.2948178 28.4794142,35.7099334 28.4794142,36.2733132 C28.4794142,36.421571 28.4682809,36.5772394 28.4460138,36.740323 C28.4237468,36.9034066 28.3977689,37.0739005 28.3680795,37.2518099 L26.2972543,47.0590157 C26.1042732,47.9485626 25.7739836,48.6083 25.3063755,49.0382477 C24.8387675,49.4681954 24.1299437,49.683166 23.1798829,49.683166 L15.6759246,49.683166 Z M24.7385686,38.4304537 C24.7534133,38.3563247 24.7645466,38.2896097 24.771969,38.2303066 C24.7793913,38.1710035 24.7831025,38.119114 24.7831025,38.0746367 C24.7831025,37.7336437 24.5233241,37.5631497 24.0037596,37.5631497 L19.7953083,37.5631497 C19.4984143,37.5631497 19.2868805,37.622452 19.1607005,37.7410582 C19.0345206,37.8596645 18.9343203,38.0894607 18.8600968,38.4304537 L17.2568773,45.924849 C17.2271879,46.0731068 17.2123434,46.169473 17.2123434,46.2139503 C17.2123434,46.5252917 17.4275883,46.6809601 17.8580846,46.6809601 L22.066536,46.6809601 C22.4228088,46.6809601 22.6751649,46.6216579 22.8236119,46.5030516 C22.9720589,46.3844454 23.0759702,46.1917131 23.135349,45.924849 L24.7385686,38.4304537 Z M37.0744525,49.683166 L38.0987316,44.7684438 C38.1135763,44.6943149 38.1247097,44.6313063 38.132132,44.579416 C38.1395544,44.5275258 38.1432655,44.4793427 38.1432655,44.4348654 C38.1432655,44.1976529 37.9354428,44.0790484 37.5197912,44.0790484 L32.6433317,44.0790484 L31.463184,49.683166 L28.0786093,49.683166 L30.4166379,38.6750778 L33.8012125,38.6750778 L33.1777382,41.5883294 L37.8092614,41.5883294 C38.1358448,41.5883294 38.3548009,41.53644 38.4661361,41.4326595 C38.5774714,41.328879 38.6702493,41.1213212 38.7444728,40.8099798 L39.2788794,38.363738 C39.2937241,38.2896091 39.3048574,38.222894 39.3122798,38.1635909 C39.3197021,38.1042878 39.3234132,38.0523983 39.3234132,38.007921 C39.3234132,37.8300116 39.2714576,37.7114071 39.1675447,37.652104 C39.0636318,37.5928009 38.885498,37.5631497 38.6331381,37.5631497 L30.6393073,37.5631497 L31.2627815,34.6276596 L40.8375651,34.6276596 C41.6094894,34.6276596 42.1661573,34.764796 42.5075854,35.039073 C42.8490135,35.3133499 43.019725,35.732172 43.019725,36.2955517 C43.019725,36.4289838 43.0085917,36.5698266 42.9863246,36.7180844 C42.9640576,36.8663422 42.9380797,37.0220106 42.9083903,37.1850942 L42.2181152,40.4541628 C42.0548235,41.2251035 41.757934,41.7699428 41.3274377,42.0886971 C40.8969414,42.4074514 40.4219181,42.5964773 39.9023536,42.6557804 C40.377384,42.685432 40.7781849,42.7929173 41.1047683,42.9782396 C41.4313517,43.1635618 41.594641,43.4934305 41.594641,43.9678556 L41.594641,44.2013605 C41.594641,44.2829023 41.5797965,44.3681492 41.5501071,44.4571039 L40.4590271,49.683166 L37.0744525,49.683166 Z M48.9204637,49.683166 L49.543938,46.7476758 L57.5823027,46.7476758 C57.8495073,46.7476758 58.0461967,46.6957863 58.1723766,46.5920059 C58.2985566,46.4882254 58.3913345,46.2954931 58.4507133,46.0138033 L58.8960521,43.9233784 C58.9108968,43.8640753 58.918319,43.7825347 58.918319,43.6787543 C58.918319,43.4118902 58.7253408,43.2784601 58.3393786,43.2784601 L52.3941061,43.2784601 C51.7854734,43.2784601 51.3438502,43.1487365 51.0692233,42.8892853 C50.7945963,42.6298341 50.6572849,42.2629015 50.6572849,41.7884765 C50.6572849,41.6105671 50.6795516,41.3955965 50.7240857,41.1435582 L51.5479624,37.2518099 C51.7409435,36.362263 52.067522,35.7025255 52.5277077,35.2725779 C52.9878934,34.8426302 53.7078506,34.6276596 54.6876007,34.6276596 L64.0619818,34.6276596 L63.4607745,37.4964341 L55.4669436,37.4964341 C55.2294284,37.4964341 55.0587169,37.5483235 54.954804,37.652104 C54.8508911,37.7558845 54.7692465,37.941204 54.7098677,38.208068 L54.2867959,40.1873 C54.2719512,40.2466032 54.2608178,40.2984926 54.2533954,40.34297 C54.2459731,40.3874473 54.242262,40.431924 54.242262,40.4764014 C54.242262,40.6987881 54.4055512,40.8099798 54.7321346,40.8099798 L60.7664749,40.8099798 C61.3899523,40.8099798 61.8389978,40.9434098 62.1136247,41.2102739 C62.3882517,41.477138 62.5255631,41.847777 62.5255631,42.322202 C62.5255631,42.5149372 62.5032964,42.722495 62.4587623,42.9448817 L61.5903517,47.0590157 C61.3973706,47.9485626 61.0707921,48.6083 60.6106064,49.0382477 C60.1504207,49.4681954 59.4378858,49.683166 58.4729803,49.683166 L48.9204637,49.683166 Z M65.9101377,49.683166 C65.1382133,49.683166 64.5889677,49.5497359 64.2623843,49.2828719 C63.9358009,49.0160078 63.7725116,48.6008921 63.7725116,48.0375124 C63.7725116,47.8892546 63.7799339,47.7335862 63.7947786,47.5705026 C63.8096233,47.407419 63.8393122,47.2369251 63.8838463,47.0590157 L66.511345,34.6276596 L69.8959197,34.6276596 L67.5133573,45.8803719 C67.4688232,46.0582813 67.4465565,46.1917113 67.4465565,46.280666 C67.4465565,46.4437496 67.4985121,46.5512349 67.602425,46.6031252 C67.7063379,46.6550154 67.8770494,46.6809601 68.1145646,46.6809601 L72.5679523,46.6809601 C72.8648463,46.6809601 73.0800912,46.632777 73.2136935,46.5364095 C73.3472958,46.4400419 73.4512071,46.2213649 73.5254306,45.8803719 L75.9079931,34.6276596 L79.1589661,34.6276596 L76.5314673,47.0590157 C76.3384862,47.9485626 76.0081966,48.6083 75.5405886,49.0382477 C75.0729805,49.4681954 74.3641567,49.683166 73.414096,49.683166 L65.9101377,49.683166 Z M87.3977333,49.683166 L88.4220124,44.7684438 C88.4368571,44.6943149 88.4479905,44.6313063 88.4554129,44.579416 C88.4628352,44.5275258 88.4665463,44.4793427 88.4665463,44.4348654 C88.4665463,44.1976529 88.2587236,44.0790484 87.843072,44.0790484 L82.9666125,44.0790484 L81.7864648,49.683166 L78.4018902,49.683166 L80.7399187,38.6750778 L84.1244933,38.6750778 L83.5010191,41.5883294 L88.1325422,41.5883294 C88.4591256,41.5883294 88.6780817,41.53644 88.7894169,41.4326595 C88.9007522,41.328879 88.9935302,41.1213212 89.0677537,40.8099798 L89.6021602,38.363738 C89.6170049,38.2896091 89.6281382,38.222894 89.6355606,38.1635909 C89.6429829,38.1042878 89.6466941,38.0523983 89.6466941,38.007921 C89.6466941,37.8300116 89.5947384,37.7114071 89.4908255,37.652104 C89.3869126,37.5928009 89.2087789,37.5631497 88.956419,37.5631497 L80.9625881,37.5631497 L81.5860624,34.6276596 L91.1608459,34.6276596 C91.9327703,34.6276596 92.4894382,34.764796 92.8308663,35.039073 C93.1722943,35.3133499 93.3430058,35.732172 93.3430058,36.2955517 C93.3430058,36.4289838 93.3318725,36.5698266 93.3096054,36.7180844 C93.2873384,36.8663422 93.2613605,37.0220106 93.2316711,37.1850942 L92.5413961,40.4541628 C92.3781044,41.2251035 92.0812148,41.7699428 91.6507185,42.0886971 C91.2202222,42.4074514 90.745199,42.5964773 90.2256345,42.6557804 C90.7006649,42.685432 91.1014657,42.7929173 91.4280491,42.9782396 C91.7546325,43.1635618 91.9179218,43.4934305 91.9179218,43.9678556 L91.9179218,44.2013605 C91.9179218,44.2829023 91.9030773,44.3681492 91.8733879,44.4571039 L90.7823079,49.683166 L87.3977333,49.683166 Z M93.0758026,49.683166 L95.4138311,38.6750778 L98.9097404,38.6750778 L98.3753339,41.1213196 L103.919802,41.1213196 L103.407662,43.5230843 L97.8631943,43.5230843 L97.1951862,46.6809601 L104.87728,46.6809601 L104.253806,49.683166 L93.0758026,49.683166 Z M95.6365005,37.5631497 L96.2599748,34.6276596 L107.437978,34.6276596 L106.814504,37.5631497 L95.6365005,37.5631497 Z" id="For-Sure-Copy" fill="#00BA7E"></path>
                    <path d="M23.6096621,33.2738298 L25.8733981,22.4119149 C25.906206,22.2480843 25.9308116,22.1088304 25.9472155,21.9941489 C25.9636195,21.8794675 25.9718214,21.7729792 25.9718214,21.6746809 C25.9718214,21.1504229 25.5125172,20.8882979 24.5938951,20.8882979 L13.8165437,20.8882979 L11.2083262,33.2738298 L3.72815534,33.2738298 L8.89537864,8.94510638 L16.3755495,8.94510638 L14.9976233,15.383617 L25.2336466,15.383617 C25.9554211,15.383617 26.4393308,15.2689373 26.6853903,15.0395745 C26.9314498,14.8102116 27.1364963,14.3514928 27.3005359,13.6634043 L28.4816155,8.25702128 C28.5144235,8.09319067 28.539029,7.94574534 28.555433,7.81468085 C28.571837,7.68361637 28.5800388,7.56893666 28.5800388,7.4706383 C28.5800388,7.07744484 28.4652128,6.8153198 28.2355573,6.68425532 C28.0059018,6.55319083 27.6122125,6.48765957 27.0544777,6.48765957 L9.38749515,6.48765957 L10.7654214,0 L31.9264311,0 C33.6324435,0 34.8627224,0.303082076 35.6173049,0.909255319 C36.3718873,1.51542856 36.7491728,2.4410576 36.7491728,3.68617021 C36.7491728,3.9810653 36.7245672,4.29233879 36.6753553,4.62 C36.6261434,4.94766121 36.5687304,5.29170033 36.5031146,5.65212766 L34.9775534,12.8770213 C34.6166662,14.5808596 33.9605174,15.7849965 33.0090874,16.4894681 C32.0576574,17.1939397 31.0078193,17.6117015 29.8595417,17.742766 C30.9093955,17.8082982 31.7951964,18.045849 32.5169709,18.4554255 C33.2387454,18.865002 33.5996272,19.5940373 33.5996272,20.6425532 L33.5996272,21.158617 C33.5996272,21.3388307 33.5668197,21.5272331 33.5012039,21.7238298 L31.089833,33.2738298 L23.6096621,33.2738298 Z M36.5031146,33.2738298 L43.5403806,0 L51.0205515,0 L43.9832854,33.2738298 L36.5031146,33.2738298 Z M49.6918369,33.2738298 L54.8590602,8.99425532 L62.2408078,8.99425532 L58.4515107,26.7861702 L68.9335922,26.7861702 C70.6724126,26.7861702 71.7714618,25.7212872 72.2307728,23.5914894 L75.1834718,9.73148936 C75.2818956,9.33829591 75.3311068,8.96149116 75.3311068,8.60106383 C75.3311068,7.22488674 74.6257469,6.53680851 73.2150058,6.53680851 L55.3511767,6.53680851 L56.7291029,0 L75.9708583,0 C80.826432,0 83.2541825,1.96593779 83.2541825,5.89787234 C83.2541825,6.71702537 83.1557602,7.58531456 82.9589126,8.50276596 L79.4648854,24.7710638 C78.8743427,27.5561841 77.7096786,29.6695673 75.9708583,31.1112766 C74.2320379,32.5529859 71.886306,33.2738298 68.9335922,33.2738298 L49.6918369,33.2738298 Z M82.7128544,33.2738298 L87.8800777,8.94510638 L95.6063068,8.94510638 L94.4252272,14.3514894 L106.678928,14.3514894 L105.54706,19.6595745 L93.2933592,19.6595745 L91.8170097,26.6387234 L108.795029,26.6387234 L107.417103,33.2738298 L82.7128544,33.2738298 Z M88.3721942,6.48765957 L89.7501204,0 L114.454369,0 L113.076443,6.48765957 L88.3721942,6.48765957 Z" id="Ride-Copy-3" fill="#3F3F3F"></path>
                </g>
                <g id="Group-2" transform="translate(37.467961, 35.000000) scale(-1, 1) translate(-37.467961, -35.000000) ">
                    <ellipse id="Oval-10" fill="#00BA7E" cx="33.3669903" cy="32.9521277" rx="32.9941748" ry="32.9521277"></ellipse>
                    <path d="M64.1068704,20.4062013 C39.9398445,18.1325333 18.6670961,22.7772751 0.288625084,34.3404266 C0.456086771,36.4257437 0.695742257,38.2888597 1.00759154,39.9297746 C1.31944083,41.5706895 1.94944984,43.969463 2.89761858,47.1260952 C14.3234325,37.1762033 24.3608,30.5878342 33.0097209,27.3609879 C41.6586418,24.1341415 52.0243583,21.8158793 64.1068704,20.4062013 Z" id="Path-12" fill="#FFFFFF"></path>
                    <path d="M72.1856325,32.8106254 C45.9242017,29.6892927 25.2439488,34.1823416 10.1448736,46.2897721 C10.4710082,47.9233219 11.4989969,49.7141399 13.2288398,51.6622258 C14.9586827,53.6103118 17.1277978,55.5081137 19.7361854,57.3556316 C25.6727815,48.8432252 32.9655401,42.9735988 41.614461,39.7467524 C50.2633819,36.5199061 60.4537724,34.2078637 72.1856325,32.8106254 Z" id="Path-12-Copy" fill="#FFFFFF" transform="translate(41.165253, 44.603310) rotate(-26.000000) translate(-41.165253, -44.603310) "></path>
                    <path d="M5.04196303,49.7543049 C21.3534975,35.0366172 34.8712755,26.3098656 45.5952972,23.5740502 C38.2481399,25.2357078 31.7019197,27.538695 25.9566365,30.4830116 C20.095456,33.4867227 12.5481239,38.8966421 3.31464002,46.7127697 L5.04196303,49.7543049 Z" id="Path-13" fill="url(#linearGradient-1)"></path>
                    <path d="M3.91201544,38.2993052 C24.0962422,24.4898932 43.9955789,18.5242286 63.6100257,20.4023113 C52.5851595,19.2753397 41.7250829,19.776011 31.0297957,21.9043251 C24.48745,23.2062226 16.8209145,25.6235924 9.53777643,29.1268119 C7.29837188,30.2039748 4.25661317,31.9191529 0.412500299,34.2723464 L3.91201544,38.2993052 Z" id="Path-14" fill="url(#linearGradient-2)"></path>
                    <path d="M20.8913086,59.6607255 C27.8513081,41.2844418 42.1697036,28.2364683 63.846495,20.5168049 C51.058855,24.400501 39.743824,30.5418734 29.901402,38.9409219 C26.3657608,41.9580676 22.67157,45.8073616 19.529922,50.2332781 C18.1643776,52.1570409 16.3183174,55.2995233 13.9917413,59.6607255 L20.8913086,59.6607255 Z" id="Path-15" fill="url(#linearGradient-2)"></path>
                    <path d="M27.3923078,65.3977886 C27.8211067,63.3985941 28.1415082,61.961126 28.3535122,61.0853843 C29.1466753,57.8090026 30.0224098,55.4177348 30.6467041,53.8198721 C31.9541165,50.4735892 33.6061201,47.4416634 35.1555444,45.3408674 C39.9264274,38.8722383 44.0456312,35.265011 50.4983161,29.9941889 C43.9199588,36.5117514 39.0970134,42.3926361 36.02948,47.6368429 C33.5927895,51.8025706 31.6721299,57.8474447 30.2675012,65.7714653 L27.3923078,65.3977886 Z" id="Path-16" fill="url(#linearGradient-1)"></path>
                </g>
                <g id="Group-3" transform="translate(13.048544, 20.478723)" fill="#FFFFFF">
                    <path d="M7.33029654,1.38715534 L7.23524201,1.81083593 C5.92363663,1.65253807 4.91784361,1.55107365 4.21786296,1.50644267 C3.51788232,1.46181169 2.21430202,1.4119926 0.307122071,1.35698541 C2.14084703,1.262116 3.51481398,1.21891475 4.42902292,1.22738164 C5.34323186,1.23584853 6.31032307,1.28910643 7.33029654,1.38715534 Z" id="Rectangle-21" transform="translate(3.818709, 1.518588) rotate(15.000000) translate(-3.818709, -1.518588) "></path>
                    <polygon id="Rectangle" transform="translate(10.139122, 3.458204) rotate(21.000000) translate(-10.139122, -3.458204) " points="8.18409385 3.28540019 11.2940252 3.21801387 12.0930428 3.21739021 12.0941496 3.64938024 11.1241941 3.65297796 8.18520061 3.71739021"></polygon>
                    <polygon id="Rectangle-22" transform="translate(16.212461, 5.626668) rotate(20.000000) translate(-16.212461, -5.626668) " points="12.9927367 5.3521349 19.4321858 5.55417615 19.2569448 5.90120015 12.9927367 5.72447533"></polygon>
                    <path d="M20.020741,8.66340496 C20.9689563,8.69205154 22.3262618,8.81184936 24.0926572,9.02279842 C25.8590527,9.23374749 27.5605379,9.47313652 29.1971127,9.74096552 L29.0218717,10.0879895 C26.9627195,9.76367855 25.3269574,9.52924717 24.1145854,9.38469537 C22.9022134,9.24014358 21.4876978,9.11696867 19.8710387,9.01517067 L20.020741,8.66340496 Z" id="Rectangle-22-Copy" transform="translate(24.534076, 9.375697) rotate(20.000000) translate(-24.534076, -9.375697) "></path>
                    <path d="M29.6236371,13.6601976 C30.2112121,13.6241655 31.3881973,13.711624 33.1545927,13.922573 C34.9209882,14.1335221 36.1641176,14.3478498 36.883981,14.565556 L36.8247079,14.9493504 C35.7565578,14.6646839 34.5404954,14.4430571 33.1765209,14.28447 C31.8125463,14.1258828 30.5767262,14.0237157 29.4690607,13.9779685 L29.6236371,13.6601976 Z" id="Rectangle-22-Copy-2" transform="translate(33.176521, 14.300831) rotate(26.000000) translate(-33.176521, -14.300831) "></path>
                    <polygon id="Rectangle-23" transform="translate(40.085825, 19.328712) rotate(40.000000) translate(-40.085825, -19.328712) " points="36.7339364 19.1241559 43.444616 19.1241559 43.4377134 19.6241559 36.7270338 19.6241559"></polygon>
                    <polygon id="Rectangle-23-Copy" transform="translate(46.423689, 25.286159) rotate(44.000000) translate(-46.423689, -25.286159) " points="43.0718005 25.0816027 49.7824801 25.0816027 49.7755774 25.5816027 43.0648978 25.5816027"></polygon>
                    <polygon id="Rectangle-23-Copy-2" transform="translate(51.958256, 30.768791) rotate(44.000000) translate(-51.958256, -30.768791) " points="48.6627162 30.4689252 55.224842 30.6199591 55.2537953 31.0686564 48.6916695 30.9176225"></polygon>
                </g>
            </g>
        </g>
    </g>
</svg>