<?xml version="1.0" encoding="UTF-8"?>
<svg width="186px" height="67px" viewBox="0 0 186 67" version="1.1" xmlns="http://www.w3.org/2000/svg" xmlns:xlink="http://www.w3.org/1999/xlink">
    <!-- Generator: Sketch 50.2 (55047) - http://www.bohemiancoding.com/sketch -->
    <title>Group 4 Copy</title>
    <desc>Created with Sketch.</desc>
    <defs>
        <linearGradient x1="78.1060178%" y1="10.3804694%" x2="9.10678635%" y2="82.912074%" id="linearGradient-1">
            <stop stop-color="#0B85A3" offset="0%"></stop>
            <stop stop-color="#098BAC" offset="100%"></stop>
        </linearGradient>
        <linearGradient x1="2.2443572%" y1="82.7642481%" x2="58.8366871%" y2="10.4752224%" id="linearGradient-2">
            <stop stop-color="#FDFDFD" stop-opacity="0" offset="0%"></stop>
            <stop stop-color="#0E96B8" offset="100%"></stop>
        </linearGradient>
    </defs>
    <g id="Page-1" stroke="none" stroke-width="1" fill="none" fill-rule="evenodd">
        <g id="website" transform="translate(-404.000000, -45.000000)">
            <g id="Group-4-Copy" transform="translate(396.000000, 45.000000)">
                <g id="Group" transform="translate(78.353398, 7.910680)">
                    <path d="M4.81476154,44.2125551 L3.53232505,50.2647553 L0,50.2647553 L2.362383,39.1503058 L5.89470805,39.1503058 L5.35473479,41.670181 L11.0919506,41.670181 L10.5519774,44.2125551 L4.81476154,44.2125551 Z M2.58737185,38.0253615 L3.21734065,35.0330097 L14.4892824,35.0330097 L13.8593136,38.0253615 L2.58737185,38.0253615 Z M15.8392155,50.2647553 C15.0742496,50.2647553 14.5230324,50.1297634 14.1855474,49.8597754 C13.8480625,49.5897874 13.6793225,49.177312 13.6793225,48.6223367 C13.6793225,48.3373494 13.7243198,47.9998694 13.8143158,47.6098868 L15.9067122,37.6878782 C16.1017035,36.7879183 16.4316839,36.120458 16.8966632,35.6854774 C17.3616424,35.2504968 18.0815996,35.0330097 19.0565562,35.0330097 L26.6386807,35.0330097 C27.4036466,35.0330097 27.951114,35.1680017 28.2810993,35.4379897 C28.6110846,35.7079776 28.7760748,36.1279526 28.7760748,36.6979272 C28.7760748,36.8479206 28.7648255,37.0054112 28.7423265,37.1704038 C28.7198275,37.3353965 28.693579,37.5078862 28.6635804,37.6878782 L26.571184,47.6098868 C26.3761927,48.5098467 26.0424625,49.177307 25.5699836,49.6122876 C25.0975046,50.0472683 24.3812973,50.2647553 23.42134,50.2647553 L15.8392155,50.2647553 Z M24.996262,38.8803192 C25.0112613,38.8053225 25.0225107,38.7378265 25.0300103,38.6778292 C25.03751,38.6178319 25.0412598,38.565335 25.0412598,38.520337 C25.0412598,38.1753524 24.7787754,38.0028626 24.2537988,38.0028626 L20.0015094,38.0028626 C19.7015227,38.0028626 19.4877855,38.062859 19.3602911,38.1828537 C19.2327968,38.3028484 19.1315528,38.5353345 19.0565562,38.8803192 L17.4366364,46.4624436 C17.4066377,46.612437 17.3916386,46.7099312 17.3916386,46.7549292 C17.3916386,47.0699151 17.6091257,47.2274058 18.0441063,47.2274058 L22.2963957,47.2274058 C22.6563797,47.2274058 22.9113645,47.1674093 23.0613578,47.0474147 C23.2113512,46.92742 23.3163449,46.7324316 23.3763422,46.4624436 L24.996262,38.8803192 Z M37.4606447,50.2647553 L38.4955934,45.2925016 C38.5105927,45.2175049 38.5218421,45.1537587 38.5293417,45.1012611 C38.5368414,45.0487634 38.5405912,45.0000163 38.5405912,44.9550183 C38.5405912,44.715029 38.3306037,44.5950361 37.9106224,44.5950361 L32.9833664,44.5950361 L31.7909255,50.2647553 L28.3710949,50.2647553 L30.7334779,39.1278069 L34.1533085,39.1278069 L33.5233397,42.0751609 L38.2031079,42.0751609 C38.5330932,42.0751609 38.75433,42.0226641 38.866825,41.9176687 C38.97932,41.8126734 39.0730644,41.6026859 39.1480611,41.2876999 L39.6880344,38.8128225 C39.7030337,38.7378258 39.714283,38.6703299 39.7217827,38.6103325 C39.7292824,38.5503352 39.7330321,38.4978383 39.7330321,38.4528403 C39.7330321,38.2728483 39.6805353,38.1528555 39.5755399,38.0928582 C39.4705446,38.0328608 39.2905553,38.0028626 39.0355667,38.0028626 L30.9584667,38.0028626 L31.5884355,35.0330097 L41.2629564,35.0330097 C42.0429216,35.0330097 42.6053881,35.1717514 42.9503728,35.4492391 C43.2953574,35.7267267 43.4678472,36.1504515 43.4678472,36.7204261 C43.4678472,36.8554201 43.4565978,36.9979116 43.4340988,37.147905 C43.4115998,37.2978983 43.3853514,37.4553889 43.3553527,37.6203816 L42.6578873,40.9277178 C42.4928946,41.707683 42.1929125,42.2589002 41.7579318,42.5813859 C41.3229512,42.9038715 40.8429798,43.0951101 40.3180032,43.1551074 C40.7979818,43.1851061 41.2029577,43.2938496 41.532943,43.4813413 C41.8629283,43.6688329 42.0279185,44.0025631 42.0279185,44.4825417 L42.0279185,44.71878 C42.0279185,44.8012763 42.0129194,44.8875212 41.9829207,44.9775172 L40.8804753,50.2647553 L37.4606447,50.2647553 Z M49.4300519,50.2647553 L50.0600207,47.2949024 L58.1821184,47.2949024 C58.4521064,47.2949024 58.6508445,47.2424055 58.7783389,47.1374102 C58.9058332,47.0324149 58.9995776,46.8374265 59.0595749,46.5524392 L59.5095527,44.4375439 C59.524552,44.3775466 59.5320515,44.2950515 59.5320515,44.1900562 C59.5320515,43.9200682 59.3370631,43.7850762 58.9470805,43.7850762 L52.939878,43.7850762 C52.3249054,43.7850762 51.878682,43.6538341 51.6011943,43.3913457 C51.3237067,43.1288574 51.1849649,42.7576295 51.1849649,42.2776509 C51.1849649,42.0976589 51.2074636,41.8801719 51.2524616,41.6251832 L52.0849204,37.6878782 C52.2799117,36.7879183 52.609892,36.120458 53.0748713,35.6854774 C53.5398506,35.2504968 54.2673073,35.0330097 55.2572633,35.0330097 L64.7292941,35.0330097 L64.1218242,37.935366 L56.0447243,37.935366 C55.8047349,37.935366 55.6322452,37.9878628 55.5272499,38.0928582 C55.4222546,38.1978535 55.3397595,38.3853423 55.2797621,38.6553303 L54.8522833,40.6577311 C54.837284,40.7177285 54.8260346,40.7702253 54.818535,40.8152233 C54.8110353,40.8602213 54.8072855,40.9052186 54.8072855,40.9502166 C54.8072855,41.1752066 54.9722757,41.2876999 55.302261,41.2876999 L61.399459,41.2876999 C62.029431,41.2876999 62.483154,41.4226919 62.7606416,41.6926799 C63.0381293,41.9626679 63.176871,42.3376455 63.176871,42.8176242 C63.176871,43.0126155 63.1543724,43.222603 63.1093744,43.447593 L62.2319178,47.6098868 C62.0369265,48.5098467 61.7069461,49.177307 61.2419668,49.6122876 C60.7769876,50.0472683 60.0570304,50.2647553 59.0820738,50.2647553 L49.4300519,50.2647553 Z M66.5967016,50.2647553 C65.8167364,50.2647553 65.2617694,50.1297634 64.9317841,49.8597754 C64.6017988,49.5897874 64.4368086,49.1698124 64.4368086,48.5998378 C64.4368086,48.4498445 64.4443082,48.2923538 64.4593075,48.1273612 C64.4743068,47.9623685 64.504305,47.7898788 64.549303,47.6098868 L67.2041716,35.0330097 L70.6240022,35.0330097 L68.2166214,46.4174459 C68.1716234,46.5974379 68.1491248,46.7324298 68.1491248,46.8224258 C68.1491248,46.9874185 68.2016216,47.096162 68.306617,47.1486597 C68.4116123,47.2011573 68.584102,47.2274058 68.8240913,47.2274058 L73.3238685,47.2274058 C73.6238551,47.2274058 73.8413422,47.1786587 73.9763361,47.081163 C74.1113301,46.9836673 74.2163239,46.7624305 74.2913205,46.4174459 L76.6987013,35.0330097 L79.9835386,35.0330097 L77.3286701,47.6098868 C77.1336788,48.5098467 76.7999487,49.177307 76.3274697,49.6122876 C75.8549907,50.0472683 75.1387834,50.2647553 74.1788261,50.2647553 L66.5967016,50.2647553 Z M88.3081263,50.2647553 L89.3430751,45.2925016 C89.3580744,45.2175049 89.3693237,45.1537587 89.3768234,45.1012611 C89.3843231,45.0487634 89.3880728,45.0000163 89.3880728,44.9550183 C89.3880728,44.715029 89.1780853,44.5950361 88.758104,44.5950361 L83.8308481,44.5950361 L82.6384071,50.2647553 L79.2185765,50.2647553 L81.5809595,39.1278069 L85.0007901,39.1278069 L84.3708213,42.0751609 L89.0505896,42.0751609 C89.3805749,42.0751609 89.6018117,42.0226641 89.7143067,41.9176687 C89.8268017,41.8126734 89.9205461,41.6026859 89.9955428,41.2876999 L90.535516,38.8128225 C90.5505153,38.7378258 90.5617647,38.6703299 90.5692643,38.6103325 C90.576764,38.5503352 90.5805138,38.4978383 90.5805138,38.4528403 C90.5805138,38.2728483 90.5280169,38.1528555 90.4230216,38.0928582 C90.3180263,38.0328608 90.138037,38.0028626 89.8830483,38.0028626 L81.8059484,38.0028626 L82.4359172,35.0330097 L92.110438,35.0330097 C92.8904033,35.0330097 93.4528698,35.1717514 93.7978544,35.4492391 C94.1428391,35.7267267 94.3153288,36.1504515 94.3153288,36.7204261 C94.3153288,36.8554201 94.3040795,36.9979116 94.2815805,37.147905 C94.2590815,37.2978983 94.232833,37.4553889 94.2028344,37.6203816 L93.5053689,40.9277178 C93.3403763,41.707683 93.0403941,42.2589002 92.6054135,42.5813859 C92.1704329,42.9038715 91.6904614,43.0951101 91.1654848,43.1551074 C91.6454634,43.1851061 92.0504393,43.2938496 92.3804246,43.4813413 C92.71041,43.6688329 92.8754001,44.0025631 92.8754001,44.4825417 L92.8754001,44.71878 C92.8754001,44.8012763 92.860401,44.8875212 92.8304024,44.9775172 L91.727957,50.2647553 L88.3081263,50.2647553 Z M94.0453422,50.2647553 L96.4077252,39.1278069 L99.9400502,39.1278069 L99.400077,41.6026843 L105.0023,41.6026843 L104.484825,44.032564 L98.8826026,44.032564 L98.207636,47.2274058 L105.969752,47.2274058 L105.339783,50.2647553 L94.0453422,50.2647553 Z M96.632714,38.0028626 L97.2626828,35.0330097 L108.557123,35.0330097 L107.927155,38.0028626 L96.632714,38.0028626 Z" id="For-Sure-Copy" fill="#0891B3"></path>
                    <path d="M23.8555961,33.663332 L26.1429126,22.674268 C26.1760623,22.5085196 26.2009242,22.3676355 26.217499,22.2516117 C26.2340739,22.1355878 26.2423612,22.0278529 26.2423612,21.9284039 C26.2423612,21.398009 25.7782726,21.1328155 24.8500816,21.1328155 L13.960466,21.1328155 L11.3250796,33.663332 L3.76699029,33.663332 L8.98803883,9.04981748 L16.5461282,9.04981748 L15.1538485,15.5636971 L25.4964971,15.5636971 C26.2257901,15.5636971 26.7147405,15.4476749 26.9633631,15.2156272 C27.2119857,14.9835794 27.4191681,14.5194909 27.5849165,13.8233476 L28.778299,8.35367767 C28.8114487,8.18792927 28.8363106,8.03875794 28.8528854,7.90615922 C28.8694603,7.7735605 28.8777476,7.65753836 28.8777476,7.55808932 C28.8777476,7.16029316 28.7617254,6.89509969 28.5296777,6.76250097 C28.2976299,6.62990225 27.8998397,6.56360388 27.3362951,6.56360388 L9.48528155,6.56360388 L10.8775612,0 L32.2589981,0 C33.9827814,0 35.2258758,0.306629943 35.9883184,0.919899029 C36.7507611,1.53316811 37.1319767,2.46963254 37.1319767,3.72932039 C37.1319767,4.02766751 37.1071148,4.34258475 37.0573903,4.67408155 C37.0076658,5.00557836 36.9496547,5.35364478 36.8833553,5.71829126 L35.3419029,13.0277592 C34.9772564,14.7515426 34.3142728,15.9697751 33.352932,16.6824932 C32.3915913,17.3952113 31.3308175,17.8178634 30.1705786,17.9504621 C31.2313684,18.0167615 32.1263964,18.2570931 32.8556893,18.6714641 C33.5849823,19.0858351 33.9496233,19.8234044 33.9496233,20.8841942 L33.9496233,21.406299 C33.9496233,21.5886223 33.9164741,21.7792301 33.8501748,21.9781282 L31.4136854,33.663332 L23.8555961,33.663332 Z M36.8833553,33.663332 L43.9939262,0 L51.5520155,0 L44.4414447,33.663332 L36.8833553,33.663332 Z M50.2094602,33.663332 L55.4305087,9.09954175 L62.8891495,9.09954175 L59.0603806,27.0997282 L69.6516505,27.0997282 C71.4085835,27.0997282 72.5190812,26.0223797 72.9831767,23.8676505 L75.966633,9.84540583 C76.0660821,9.44760966 76.1158058,9.06639406 76.1158058,8.70174757 C76.1158058,7.309461 75.4030984,6.61332816 73.9776621,6.61332816 L55.9277515,6.61332816 L57.3200311,0 L76.7622214,0 C81.668374,0 84.1214136,1.98895098 84.1214136,5.96691262 C84.1214136,6.79565463 84.021966,7.67410798 83.823068,8.60229903 L80.2926447,25.061033 C79.6959504,27.8787558 78.5191544,30.0168781 76.7622214,31.4754641 C75.0052883,32.93405 72.6351217,33.663332 69.6516505,33.663332 L50.2094602,33.663332 Z M83.5744466,33.663332 L88.7954951,9.04981748 L96.6022058,9.04981748 L95.4088233,14.5194874 L107.790167,14.5194874 L106.646509,19.8897087 L94.265165,19.8897087 L92.7734369,26.9505553 L109.928311,26.9505553 L108.536031,33.663332 L83.5744466,33.663332 Z M89.2927379,6.56360388 L90.6850175,0 L115.646602,0 L114.254322,6.56360388 L89.2927379,6.56360388 Z" id="Ride-Copy-3" fill="#3F3F3F"></path>
                </g>
                <g id="Group-2" transform="translate(37.858252, 35.409709) scale(-1, 1) translate(-37.858252, -35.409709) ">
                    <circle id="Oval-10" fill="#0891B3" cx="33.7145631" cy="33.3378641" r="33.3378641"></circle>
                    <path d="M64.7746502,20.6450756 C40.3558845,18.3447921 18.861545,23.043905 0.291631595,34.7424144 C0.460837675,36.8521422 0.702989572,38.7370677 1.01808729,40.3971911 C1.333185,42.0573145 1.96975661,44.484168 2.92780211,47.6777515 C14.472635,37.6113866 24.6145583,30.9458943 33.3535722,27.6812746 C42.092586,24.4166549 52.5662787,22.0712552 64.7746502,20.6450756 Z" id="Path-12" fill="#FFFFFF"></path>
                    <path d="M72.9375662,33.1947054 C46.4025788,30.0368345 25.5069066,34.5824789 10.2505494,46.8316385 C10.5800812,48.4843106 11.6187782,50.2960918 13.3666402,52.266982 C15.1145023,54.2378721 17.3062124,56.1578897 19.9417706,58.0270345 C25.9402063,49.4149822 33.3089311,43.4766462 42.047945,40.2120265 C50.7869588,36.9474068 61.0834992,34.6082997 72.9375662,33.1947054 Z" id="Path-12-Copy" fill="#FFFFFF" transform="translate(41.594058, 45.125435) rotate(-26.000000) translate(-41.594058, -45.125435) "></path>
                    <path d="M5.09448348,50.336727 C21.5759297,35.4467545 35.234518,26.6178479 46.0702482,23.8500072 C38.646558,25.5311161 32.032148,27.8610619 26.2270181,30.8398446 C20.3047837,33.8787171 12.6788335,39.3519648 3.34916752,47.2595877 L5.09448348,50.336727 Z" id="Path-13" fill="url(#linearGradient-1)"></path>
                    <path d="M3.9527656,38.7476355 C24.3472447,24.7765711 44.4538662,18.7410726 64.2726302,20.6411401 C53.1329216,19.5009762 42.1597191,20.0075083 31.3530227,22.1607364 C24.7425276,23.4778738 16.9961323,25.9235412 9.63712827,29.4677693 C7.37439659,30.5575414 4.30095289,32.2927974 0.416797177,34.6735372 L3.9527656,38.7476355 Z" id="Path-14" fill="url(#linearGradient-2)"></path>
                    <path d="M21.1089264,60.3591118 C28.1414259,41.767716 42.6089713,28.5670034 64.5115626,20.7569739 C51.5907181,24.6861324 40.1578222,30.8993954 30.2128749,39.3967629 C26.6404042,42.4492272 22.9077322,46.343581 19.7333587,50.8213071 C18.3535899,52.7675893 16.4882999,55.9468576 14.1374886,60.3591118 L21.1089264,60.3591118 Z" id="Path-15" fill="url(#linearGradient-2)"></path>
                    <path d="M27.6776443,66.1633328 C28.1109099,64.1407358 28.4346489,62.6864407 28.6488612,61.8004476 C29.4502865,58.4857127 30.3351432,56.0664528 30.9659406,54.4498856 C32.2869719,51.0644312 33.9561838,47.9970138 35.521748,45.871626 C40.3423277,39.3272753 44.5044398,35.6778219 51.0243402,30.3452998 C44.3774584,36.9391566 39.504274,42.8888828 36.404787,48.1944781 C33.9427144,52.4089696 32.0020479,58.5246048 30.5827877,66.5413837 L27.6776443,66.1633328 Z" id="Path-16" fill="url(#linearGradient-1)"></path>
                </g>
                <g id="Group-3" transform="translate(13.184466, 20.718447)" fill="#FFFFFF">
                    <path d="M7.40665379,1.40339333 L7.31060911,1.83203351 C5.98534118,1.67188262 4.96907115,1.56923046 4.26179904,1.52407703 C3.55452692,1.4789236 2.23736766,1.42852134 0.310321259,1.37287023 C2.16314752,1.27689029 3.55142663,1.23318332 4.47515858,1.24174932 C5.39889052,1.25031533 6.3760556,1.30419666 7.40665379,1.40339333 Z" id="Rectangle-21" transform="translate(3.858488, 1.536365) rotate(15.000000) translate(-3.858488, -1.536365) "></path>
                    <polygon id="Rectangle" transform="translate(10.244738, 3.498685) rotate(21.000000) translate(-10.244738, -3.498685) " points="8.26934482 3.32306285 11.4116713 3.25567652 12.219012 3.25505287 12.2201303 3.68704289 11.2400711 3.69064061 8.27046312 3.75505287"></polygon>
                    <polygon id="Rectangle-22" transform="translate(16.381341, 5.692533) rotate(20.000000) translate(-16.381341, -5.692533) " points="13.1280777 5.4147868 19.6346044 5.61919314 19.4575379 5.97027938 13.1280777 5.79148583"></polygon>
                    <path d="M20.2292903,8.76481847 C21.187383,8.79380038 22.558827,8.91500055 24.3436224,9.12841898 C26.1284178,9.34183741 27.8476268,9.58402872 29.5012493,9.85499291 L29.3241828,10.2060792 C27.2435811,9.87797182 25.5907798,9.64079619 24.365779,9.49455228 C23.1407781,9.34830836 21.711528,9.22369158 20.0780287,9.12070193 L20.2292903,8.76481847 Z" id="Rectangle-22-Copy" transform="translate(24.789639, 9.485449) rotate(20.000000) translate(-24.789639, -9.485449) "></path>
                    <path d="M29.9322166,13.8201034 C30.5259122,13.7836495 31.7151577,13.8721317 33.4999531,14.0855502 C35.2847485,14.2989686 36.5408272,14.5158052 37.2681891,14.7360599 L37.2082986,15.124347 C36.1290219,14.8363482 34.9002923,14.612127 33.5221096,14.4516835 C32.143927,14.2912399 30.8952338,14.1878768 29.7760301,14.1415941 L29.9322166,13.8201034 Z" id="Rectangle-22-Copy-2" transform="translate(33.522110, 14.468236) rotate(26.000000) translate(-33.522110, -14.468236) "></path>
                    <polygon id="Rectangle-23" transform="translate(40.503386, 19.554973) rotate(40.000000) translate(-40.503386, -19.554973) " points="37.1165816 19.3480225 43.8971641 19.3480225 43.8901896 19.8480225 37.109607 19.8480225"></polygon>
                    <polygon id="Rectangle-23-Copy" transform="translate(46.907269, 25.582158) rotate(44.000000) translate(-46.907269, -25.582158) " points="43.5204651 25.375207 50.3010476 25.375207 50.294073 25.875207 43.5134905 25.875207"></polygon>
                    <polygon id="Rectangle-23-Copy-2" transform="translate(52.499488, 31.128969) rotate(44.000000) translate(-52.499488, -31.128969) " points="49.1696195 30.8255933 55.8001008 30.9783952 55.8293556 31.432345 49.1988743 31.2795431"></polygon>
                </g>
            </g>
        </g>
    </g>
</svg>