<?xml version="1.0" encoding="UTF-8"?>
<svg width="492px" height="177px" viewBox="0 0 492 177" version="1.1" xmlns="http://www.w3.org/2000/svg" xmlns:xlink="http://www.w3.org/1999/xlink">
    <!-- Generator: Sketch 50.2 (55047) - http://www.bohemiancoding.com/sketch -->
    <title>logo-02</title>
    <desc>Created with Sketch.</desc>
    <defs>
        <linearGradient x1="78.1060178%" y1="10.3804694%" x2="9.10678635%" y2="82.912074%" id="linearGradient-1">
            <stop stop-color="#10BDB8" offset="0%"></stop>
            <stop stop-color="#08BAB5" offset="100%"></stop>
        </linearGradient>
        <linearGradient x1="2.2443572%" y1="82.7642481%" x2="58.8366871%" y2="10.4752224%" id="linearGradient-2">
            <stop stop-color="#FDFDFD" stop-opacity="0" offset="0%"></stop>
            <stop stop-color="#07B7B1" offset="100%"></stop>
        </linearGradient>
    </defs>
    <g id="Page-1" stroke="none" stroke-width="1" fill="none" fill-rule="evenodd">
        <g id="Taxi-logos-Copy-2" transform="translate(-101.000000, -98.000000)">
            <g id="logo-02" transform="translate(78.000000, 98.000000)">
                <g id="Group" transform="translate(208.000000, 21.000000)">
                    <path d="M12.7814546,117.368381 L9.37704847,133.434789 L0,133.434789 L6.27127445,103.929935 L15.6483229,103.929935 L14.2148888,110.619295 L29.4451267,110.619295 L28.0116926,117.368381 L12.7814546,117.368381 Z M6.86853869,100.943614 L8.54087854,93 L38.4638166,93 L36.7914768,100.943614 L6.86853869,100.943614 Z M42.047402,133.434789 C40.0166935,133.434789 38.5534108,133.076434 37.6575099,132.359713 C36.7616091,131.642992 36.3136654,130.548019 36.3136654,129.07476 C36.3136654,128.318221 36.4331171,127.422334 36.6720239,126.387071 L42.2265813,100.047718 C42.7442129,97.6586491 43.6201917,95.8867829 44.8545439,94.7320663 C46.0888962,93.5773497 48.0001226,93 50.5882806,93 L70.7160852,93 C72.7467938,93 74.2001222,93.358355 75.0761142,94.0750756 C75.9521061,94.7917963 76.3900955,95.9066784 76.3900955,97.4197553 C76.3900955,97.8179335 76.3602326,98.2360143 76.3005058,98.6740102 C76.2407791,99.1120062 76.171099,99.5699042 76.0914634,100.047718 L70.536906,126.387071 C70.0192744,128.77614 69.1333413,130.548006 67.8790801,131.702722 C66.624819,132.857439 64.7235468,133.434789 62.1752067,133.434789 L42.047402,133.434789 Z M66.3560563,103.213218 C66.3958742,103.014129 66.4257371,102.834952 66.445646,102.675681 C66.4655549,102.516409 66.4755092,102.377049 66.4755092,102.257596 C66.4755092,101.341786 65.7787079,100.883888 64.3850844,100.883888 L53.0967904,100.883888 C52.3004341,100.883888 51.7330387,101.043157 51.3945873,101.361699 C51.0561359,101.680242 50.7873697,102.297409 50.5882806,103.213218 L46.2879781,123.341023 C46.2083425,123.739201 46.1685253,123.998013 46.1685253,124.117467 C46.1685253,124.953641 46.7458749,125.371721 47.9005915,125.371721 L59.1888855,125.371721 C60.1445131,125.371721 60.8214058,125.212453 61.2195839,124.89391 C61.6177621,124.575368 61.8964826,124.057744 62.0557539,123.341023 L66.3560563,103.213218 Z M99.4444949,133.434789 L102.19191,120.235249 C102.231728,120.03616 102.261591,119.866937 102.2815,119.727574 C102.301409,119.588212 102.311363,119.458806 102.311363,119.339353 C102.311363,118.702268 101.753922,118.38373 100.639023,118.38373 L87.5589366,118.38373 L84.3934362,133.434789 L75.3150198,133.434789 L81.5862943,103.870209 L90.6647106,103.870209 L88.9923708,111.694371 L101.415467,111.694371 C102.291459,111.694371 102.878763,111.55501 103.177396,111.276286 C103.47603,110.997561 103.724888,110.44012 103.923977,109.603946 L105.357411,103.034039 C105.397229,102.83495 105.427092,102.655773 105.447,102.496501 C105.466909,102.33723 105.476864,102.19787 105.476864,102.078416 C105.476864,101.600603 105.337503,101.282065 105.058779,101.122794 C104.780054,100.963522 104.302247,100.883888 103.625345,100.883888 L82.1835585,100.883888 L83.8558984,93 L109.53826,93 C111.608787,93 113.101932,93.3683093 114.017742,94.1049388 C114.933552,94.8415684 115.39145,95.9664048 115.39145,97.4794818 C115.39145,97.8378421 115.361587,98.2161056 115.30186,98.6142838 C115.242134,99.0124619 115.172453,99.4305427 115.092818,99.8685387 L113.241299,108.648323 C112.803303,110.718849 112.006958,112.182132 110.852242,113.038215 C109.697525,113.894298 108.423374,114.401968 107.029751,114.561239 C108.303921,114.640874 109.378986,114.929549 110.254978,115.427272 C111.130969,115.924995 111.568959,116.810928 111.568959,118.085098 L111.568959,118.712225 C111.568959,118.931223 111.529142,119.160172 111.449506,119.399079 L108.522911,133.434789 L99.4444949,133.434789 Z M131.218952,133.434789 L132.891292,125.550901 L154.452531,125.550901 C155.169251,125.550901 155.69683,125.41154 156.035281,125.132816 C156.373732,124.854091 156.62259,124.336467 156.781861,123.579929 L157.97639,117.965645 C158.016208,117.806374 158.036116,117.587379 158.036116,117.308654 C158.036116,116.591934 157.518492,116.233579 156.483229,116.233579 L140.536274,116.233579 C138.903744,116.233579 137.719182,115.885178 136.982552,115.188366 C136.245922,114.491555 135.877613,113.506078 135.877613,112.231908 C135.877613,111.754095 135.937339,111.176745 136.056792,110.499842 L138.26667,100.047718 C138.784302,97.6586491 139.66028,95.8867829 140.894633,94.7320663 C142.128985,93.5773497 144.06012,93 146.688096,93 L171.83292,93 L170.220307,100.704709 L148.778521,100.704709 C148.141436,100.704709 147.683538,100.844069 147.404813,101.122794 C147.126088,101.401518 146.907093,101.899233 146.747822,102.615954 L145.61302,107.931606 C145.573202,108.090877 145.543339,108.230237 145.52343,108.349691 C145.503522,108.469144 145.493567,108.588596 145.493567,108.708049 C145.493567,109.305317 145.931557,109.603946 146.807549,109.603946 L162.993409,109.603946 C164.665758,109.603946 165.870228,109.962301 166.606858,110.679021 C167.343488,111.395742 167.711797,112.391172 167.711797,113.665342 C167.711797,114.182974 167.652071,114.740415 167.532618,115.337682 L165.203287,126.387071 C164.685655,128.77614 163.809677,130.548006 162.575324,131.702722 C161.340972,132.857439 159.429746,133.434789 156.841588,133.434789 L131.218952,133.434789 Z M176.790213,133.434789 C174.719687,133.434789 173.24645,133.076434 172.370458,132.359713 C171.494466,131.642992 171.056476,130.52811 171.056476,129.015033 C171.056476,128.616855 171.076385,128.198774 171.116203,127.760778 C171.156021,127.322782 171.235655,126.864884 171.355109,126.387071 L178.402827,93 L187.481243,93 L181.090516,123.22157 C180.971062,123.699384 180.911336,124.057739 180.911336,124.296646 C180.911336,124.734642 181.050697,125.023317 181.329421,125.162679 C181.608146,125.302041 182.066044,125.371721 182.703129,125.371721 L194.648414,125.371721 C195.44477,125.371721 196.02212,125.242316 196.38048,124.9835 C196.73884,124.724684 197.017561,124.13738 197.21665,123.22157 L203.607377,93 L212.327435,93 L205.279717,126.387071 C204.762085,128.77614 203.876152,130.548006 202.621891,131.702722 C201.36763,132.857439 199.466358,133.434789 196.918018,133.434789 L176.790213,133.434789 Z M234.426212,133.434789 L237.173627,120.235249 C237.213445,120.03616 237.243308,119.866937 237.263217,119.727574 C237.283126,119.588212 237.29308,119.458806 237.29308,119.339353 C237.29308,118.702268 236.735639,118.38373 235.62074,118.38373 L222.540653,118.38373 L219.375153,133.434789 L210.296737,133.434789 L216.568011,103.870209 L225.646427,103.870209 L223.974088,111.694371 L236.397184,111.694371 C237.273176,111.694371 237.86048,111.55501 238.159113,111.276286 C238.457747,110.997561 238.706604,110.44012 238.905693,109.603946 L240.339128,103.034039 C240.378945,102.83495 240.408808,102.655773 240.428717,102.496501 C240.448626,102.33723 240.45858,102.19787 240.45858,102.078416 C240.45858,101.600603 240.31922,101.282065 240.040495,101.122794 C239.761771,100.963522 239.283964,100.883888 238.607061,100.883888 L217.165275,100.883888 L218.837615,93 L244.519977,93 C246.590504,93 248.083649,93.3683093 248.999459,94.1049388 C249.915269,94.8415684 250.373167,95.9664048 250.373167,97.4794818 C250.373167,97.8378421 250.343304,98.2161056 250.283577,98.6142838 C250.22385,99.0124619 250.15417,99.4305427 250.074535,99.8685387 L248.223015,108.648323 C247.785019,110.718849 246.988675,112.182132 245.833959,113.038215 C244.679242,113.894298 243.405091,114.401968 242.011467,114.561239 C243.285637,114.640874 244.360702,114.929549 245.236694,115.427272 C246.112686,115.924995 246.550676,116.810928 246.550676,118.085098 L246.550676,118.712225 C246.550676,118.931223 246.510858,119.160172 246.431223,119.399079 L243.504628,133.434789 L234.426212,133.434789 Z M249.65645,133.434789 L255.927724,103.870209 L265.304773,103.870209 L263.871338,110.440116 L278.743218,110.440116 L277.36951,116.890569 L262.497631,116.890569 L260.705838,125.371721 L281.311454,125.371721 L279.639114,133.434789 L249.65645,133.434789 Z M256.524988,100.883888 L258.197328,93 L288.179993,93 L286.507653,100.883888 L256.524988,100.883888 Z" id="For-Sure-Copy" fill="#03C4BE"></path>
                    <path d="M63.328,89.364 L69.4,60.192 C69.4880004,59.7519978 69.5539998,59.3780015 69.598,59.07 C69.6420002,58.7619985 69.664,58.4760013 69.664,58.212 C69.664,56.803993 68.4320123,56.1 65.968,56.1 L37.06,56.1 L30.064,89.364 L10,89.364 L23.86,24.024 L43.924,24.024 L40.228,41.316 L67.684,41.316 C69.6200097,41.316 70.9179967,41.0080031 71.578,40.392 C72.2380033,39.7759969 72.7879978,38.5440092 73.228,36.696 L76.396,22.176 C76.4840004,21.7359978 76.5499998,21.3400018 76.594,20.988 C76.6380002,20.6359982 76.66,20.3280013 76.66,20.064 C76.66,19.0079947 76.3520031,18.3040018 75.736,17.952 C75.1199969,17.5999982 74.0640075,17.424 72.568,17.424 L25.18,17.424 L28.876,0 L85.636,0 C90.2120229,0 93.5119899,0.81399186 95.536,2.442 C97.5600101,4.07000814 98.572,6.55598328 98.572,9.9 C98.572,10.692004 98.5060007,11.5279956 98.374,12.408 C98.2419993,13.2880044 98.0880009,14.2119952 97.912,15.18 L93.82,34.584 C92.8519952,39.1600229 91.0920128,42.3939905 88.54,44.286 C85.9879872,46.1780095 83.1720154,47.2999982 80.092,47.652 C82.9080141,47.8280009 85.2839903,48.4659945 87.22,49.566 C89.1560097,50.6660055 90.124,52.6239859 90.124,55.44 L90.124,56.826 C90.124,57.3100024 90.0360009,57.8159974 89.86,58.344 L83.392,89.364 L63.328,89.364 Z M97.912,89.364 L116.788,0 L136.852,0 L117.976,89.364 L97.912,89.364 Z M133.288,89.364 L147.148,24.156 L166.948,24.156 L156.784,71.94 L184.9,71.94 C189.564023,71.94 192.511994,69.0800286 193.744,63.36 L201.664,26.136 C201.928001,25.0799947 202.06,24.0680048 202.06,23.1 C202.06,19.4039815 200.168019,17.556 196.384,17.556 L148.468,17.556 L152.164,0 L203.776,0 C216.800065,0 223.312,5.2799472 223.312,15.84 C223.312,18.040011 223.048003,20.3719877 222.52,22.836 L213.148,66.528 C211.563992,74.0080374 208.440023,79.6839806 203.776,83.556 C199.111977,87.4280194 192.82004,89.364 184.9,89.364 L133.288,89.364 Z M221.86,89.364 L235.72,24.024 L256.444,24.024 L253.276,38.544 L286.144,38.544 L283.108,52.8 L250.24,52.8 L246.28,71.544 L291.82,71.544 L288.124,89.364 L221.86,89.364 Z M237.04,17.424 L240.736,0 L307,0 L303.304,17.424 L237.04,17.424 Z" id="Ride-Copy-3" fill="#3F3F3F"></path>
                </g>
                <g id="Group-2" transform="translate(100.500000, 94.000000) scale(-1, 1) translate(-100.500000, -94.000000) ">
                    <circle id="Oval-10" fill="#03C4BE" cx="89.5" cy="88.5" r="88.5"></circle>
                    <path d="M171.953324,54.8052264 C107.130312,48.6988038 50.0705962,61.1732531 0.774176657,92.2285742 C1.22335774,97.8291403 1.86618366,102.832938 2.7026544,107.239966 C3.53912514,111.646995 5.22899306,118.089415 7.77225818,126.567227 C38.4196237,99.8446603 65.3427708,82.1501833 88.5416993,73.483796 C111.740628,64.8174086 139.544503,58.5912187 171.953324,54.8052264 Z" id="Path-12" fill="#FFFFFF"></path>
                    <path d="M193.622921,88.1199653 C123.182104,79.7369576 67.7116334,91.8040032 27.2115099,124.321102 C28.0862981,128.70835 30.8436637,133.517976 35.4836068,138.749978 C40.1235498,143.98198 45.9417494,149.078934 52.9382055,154.040839 C68.8618879,131.178948 88.4231934,115.414808 111.622122,106.748421 C134.82105,98.0820335 162.15465,91.8725483 193.622921,88.1199653 Z" id="Path-12-Copy" fill="#FFFFFF" transform="translate(110.417215, 119.791747) rotate(-26.000000) translate(-110.417215, -119.791747) "></path>
                    <path d="M13.5240154,133.625848 C57.2763083,94.0983432 93.5349317,70.6607819 122.299886,63.3131635 C102.592667,67.7759011 85.033795,73.9610665 69.6232697,81.8686597 C53.9018742,89.9357696 33.657728,104.465267 8.89083131,125.457153 L13.5240154,133.625848 Z" id="Path-13" fill="url(#linearGradient-1)"></path>
                    <path d="M10.4931664,102.860991 C64.6331496,65.7728561 118.008975,49.7507854 170.620642,54.794779 C141.048735,51.7680553 111.918842,53.1127153 83.2309624,58.8287589 C65.6824831,62.3252834 45.1185987,68.8176481 25.5830982,78.2262949 C19.5763621,81.1192465 11.417478,85.725725 1.10644611,92.0457303 L10.4931664,102.860991 Z" id="Path-14" fill="url(#linearGradient-2)"></path>
                    <path d="M56.0365829,160.231663 C74.7053316,110.878215 113.111444,75.8350863 171.254921,55.102276 C136.954741,65.5327742 106.604528,82.0267456 80.2042814,104.58419 C70.7206606,112.687382 60.8117633,123.025486 52.384947,134.912233 C48.7221587,140.07891 43.7704867,148.51872 37.5299311,160.231663 L56.0365829,160.231663 Z" id="Path-15" fill="url(#linearGradient-2)"></path>
                    <path d="M73.4741589,175.639775 C74.6243227,170.27051 75.4837328,166.409881 76.0523894,164.057889 C78.1798841,155.258464 80.5288597,148.836202 82.2033991,144.544799 C85.7102603,135.55764 90.1414158,127.414753 94.2974239,121.772615 C107.094323,104.399726 118.143229,94.7117437 135.451212,80.5558215 C117.806139,98.0601323 104.869593,113.854508 96.6415738,127.93895 C90.1056593,139.126904 84.9538901,155.361709 81.1862662,176.643364 L73.4741589,175.639775 Z" id="Path-16" fill="url(#linearGradient-1)"></path>
                </g>
                <g id="Group-3" transform="translate(35.000000, 55.000000)" fill="#FFFFFF">
                    <path d="M19.6619933,3.7255029 L19.4070293,4.86338794 C15.8889212,4.4382451 13.1910909,4.16574065 11.3135387,4.04587459 C9.43598642,3.92600853 5.93940385,3.7922087 0.823790972,3.6444751 C5.74237615,3.38968298 9.42775625,3.27365675 11.8799313,3.2963964 C14.3321063,3.31913606 16.926127,3.46217156 19.6619933,3.7255029 Z" id="Rectangle-21" transform="translate(10.242892, 4.078495) rotate(15.000000) translate(-10.242892, -4.078495) "></path>
                    <polygon id="Rectangle" transform="translate(27.196082, 9.287747) rotate(21.000000) translate(-27.196082, -9.287747) " points="21.9521267 8.81693439 30.2938698 8.64260427 32.4370679 8.64099086 32.4400366 9.75855995 29.838333 9.76786735 21.9550954 9.93450348"></polygon>
                    <polygon id="Rectangle-22" transform="translate(43.486550, 15.111621) rotate(20.000000) translate(-43.486550, -15.111621) " points="34.8503094 14.3743052 52.1227901 14.9169302 51.6527424 15.8489375 34.8503094 15.3743052"></polygon>
                    <path d="M53.7014666,23.2674305 C56.2448569,23.344367 59.8855459,23.6661097 64.6235337,24.2326586 C69.3615216,24.7992075 73.9254011,25.4421381 78.3151722,26.1614503 L77.8451245,27.0934576 C72.3218778,26.222451 67.9342867,25.5928352 64.6823514,25.2046104 C61.430416,24.8163856 57.6362728,24.485573 53.2999215,24.2121727 L53.7014666,23.2674305 Z" id="Rectangle-22-Copy" transform="translate(65.807547, 25.180444) rotate(20.000000) translate(-65.807547, -25.180444) "></path>
                    <path d="M79.4592349,36.6873879 C81.0352823,36.5906159 84.1923,36.8255043 88.9302878,37.3920533 C93.6682757,37.9586022 97.0027114,38.5342251 98.9335949,39.1189219 L98.7746071,40.1496839 C95.909517,39.3851511 92.6476831,38.7899248 88.9891054,38.3640051 C85.3305278,37.9380853 82.015698,37.6636935 79.044616,37.5408297 L79.4592349,36.6873879 Z" id="Rectangle-22-Copy-2" transform="translate(88.989105, 38.407947) rotate(26.000000) translate(-88.989105, -38.407947) "></path>
                    <polygon id="Rectangle-23" transform="translate(107.521874, 51.911399) rotate(40.000000) translate(-107.521874, -51.911399) " points="98.5311315 51.3620186 116.531132 51.3620186 116.512617 52.4607788 98.5126166 52.4607788"></polygon>
                    <polygon id="Rectangle-23-Copy" transform="translate(124.521874, 67.911399) rotate(44.000000) translate(-124.521874, -67.911399) " points="115.531132 67.3620186 133.531132 67.3620186 133.512617 68.4607788 115.512617 68.4607788"></polygon>
                    <polygon id="Rectangle-23-Copy-2" transform="translate(139.367196, 82.636181) rotate(44.000000) translate(-139.367196, -82.636181) " points="130.527598 81.8308276 148.129134 82.2364615 148.206795 83.4415344 130.605259 83.0359005"></polygon>
                </g>
            </g>
        </g>
    </g>
</svg>