<?xml version="1.0" encoding="UTF-8"?>
<svg width="25px" height="25px" viewBox="0 0 25 25" version="1.1" xmlns="http://www.w3.org/2000/svg" xmlns:xlink="http://www.w3.org/1999/xlink">
    <!-- Generator: Sketch 50.2 (55047) - http://www.bohemiancoding.com/sketch -->
    <title>Website</title>
    <desc>Created with Sketch.</desc>
    <defs></defs>
    <g id="Page-1" stroke="none" stroke-width="1" fill="none" fill-rule="evenodd">
        <g id="website" transform="translate(-757.000000, -618.000000)" fill="#FFFFFF">
            <g id="Group-16" transform="translate(403.000000, 297.000000)">
                <g id="Group-15" transform="translate(3.000000, 303.000000)">
                    <g id="google-copy" transform="translate(334.000000, 0.000000)">
                        <g id="Website" transform="translate(17.000000, 18.000000)">
                            <path d="M24.0517241,10.5827586 C23.828783,8.57904808 23.0762751,6.67084997 21.8715517,5.05431034 C20.0257745,2.45806168 17.2144225,0.712109895 14.0689655,0.20862069 C13.4198276,0.0965517241 12.7586207,0.0663793103 12.1,0 L11.9698276,0 C11.3568966,0.0672413793 10.7405172,0.111206897 10.1318966,0.204310345 C3.82393834,1.23110604 -0.588682114,6.99915828 0.0706896552,13.3560345 C0.356932776,16.2790587 1.72552795,18.9894982 3.90775862,20.9551724 C6.42708895,23.3296637 9.86449441,24.4737836 13.3043103,24.0827586 C15.992753,23.8528596 18.5150801,22.6861269 20.4310345,20.7862069 C23.2193561,18.1722686 24.5687342,14.3695925 24.0517241,10.5827586 Z M21.5034483,16.7603448 C21.142842,16.1604375 20.8535262,15.520471 20.6413793,14.8534483 C20.3905172,13.9344828 19.7887931,14.8224138 19.7387931,15.4224138 C19.6887931,16.0224138 19.287931,16.4724138 18.4853448,15.5724138 C17.6827586,14.6724138 17.5327586,14.8724138 17.2784483,14.8724138 C17.0241379,14.8724138 16.5767241,15.4758621 16.675,18.2732759 C16.7465517,20.2732759 17.537069,20.5905172 18.0543103,20.7353448 C15.5942176,22.4130971 12.5333548,22.9568669 9.64591851,22.2291163 C6.75848227,21.5013657 4.32100211,19.5717913 2.95,16.9284483 C1.09016723,13.346775 1.50455218,9.00720621 4.00862069,5.84224138 C4.06637931,6.29310345 4.12241379,6.69741379 4.16896552,7.10431034 C4.28123549,8.20653869 4.21515865,9.31965692 3.97327586,10.4008621 C3.92788586,10.6419993 3.9385038,10.8903412 4.00431034,11.1267241 C4.06867468,11.273524 4.20059463,11.3797035 4.35775862,11.4112069 C4.5042918,11.3790535 4.62537018,11.276379 4.68103448,11.137069 C4.74149456,10.9095445 4.77562619,10.6758296 4.78275862,10.4405172 C4.79913793,10.275 4.8,10.1077586 4.8112069,9.84827586 C4.98362069,9.98534483 5.10431034,10.0689655 5.20689655,10.1715517 C5.46551724,10.4344828 5.73362069,10.6965517 5.97327586,10.9801724 C6.09131601,11.1038517 6.16551346,11.2628462 6.18448276,11.4327586 C6.19453823,11.7259051 6.30363101,12.0069937 6.49396552,12.2301724 C6.66498723,12.5353892 6.80008274,12.859387 6.89655172,13.1956897 C6.94827586,13.3327586 6.95948276,13.487931 7.02155172,13.6189655 C7.12712577,13.9048544 7.39303858,14.1002189 7.69741379,14.1155172 C7.84346707,14.1030968 7.98774619,14.1545085 8.09303391,14.2564905 C8.19832162,14.3584725 8.2543082,14.5010387 8.24655172,14.6474138 C8.15431034,14.6577586 8.06206897,14.6698276 7.96982759,14.6793103 C7.78648652,14.663522 7.60607967,14.732985 7.48066975,14.8676533 C7.35525983,15.0023217 7.29880091,15.1872112 7.32758621,15.3689655 C7.3406442,16.2300433 7.70538601,17.0482984 8.33706897,17.6336207 C8.51810345,17.8060345 8.70948276,17.9594828 8.88534483,18.1327586 C9.28584391,18.4811179 9.42391221,19.0437462 9.23017241,19.537931 C9.11966217,19.7910744 9.03307798,20.0540017 8.97155172,20.3232759 C8.92598024,20.6014564 8.93329198,20.8857368 8.99310345,21.1612069 C9.05862069,21.4396552 9.03103448,22.0482759 9.31896552,21.9982759 C9.82844828,21.912069 10.1215517,22.0094828 10.1612069,21.4396552 C10.1697264,21.3641625 10.1593585,21.2877359 10.1310345,21.2172414 C10.1495089,20.351035 10.4871996,19.5221579 11.0793103,18.8896552 C11.4367617,18.6592932 11.7796549,18.4070896 12.1060345,18.1344828 C12.5742397,17.783548 12.7649592,17.1721341 12.5793103,16.6172414 C12.4153753,16.1226709 12.58957,15.5788353 13.0103448,15.2715517 C13.4278999,14.9409449 13.6657634,14.43329 13.6525862,13.9008621 C13.67261,13.6557831 13.5863836,13.4139121 13.4158392,13.2367702 C13.2452948,13.0596283 13.0068691,12.9642882 12.7612069,12.975 C12.521011,13.0247026 12.286477,13.0986443 12.0612069,13.1956897 C11.7276299,13.3333582 11.3844837,13.4465878 11.0344828,13.5344828 C10.5942394,13.5851131 10.1763599,13.3284767 10.0224138,12.912931 C9.85,12.6008621 9.78793103,12.5767241 9.48189655,12.7706897 C9.22327586,12.9353448 8.96465517,13.1008621 8.69913793,13.25 C8.59809571,13.3241837 8.47027684,13.3519059 8.34758035,13.3262482 C8.22488386,13.3005905 8.11888398,13.2239732 8.05603448,13.1155172 C7.91689516,12.9845907 7.76057378,12.8732226 7.59137931,12.7844828 C7.46280241,12.7362659 7.33922997,12.6756346 7.22241379,12.6034483 C7.07827423,12.4993549 6.97735272,12.3459788 6.9387931,12.1724138 C6.9904606,11.988968 7.12133913,11.8381731 7.29568966,11.7612069 C7.57725412,11.6740581 7.86561611,11.6106185 8.15775862,11.5715517 C8.31527621,11.5416587 8.47009813,11.4989889 8.62068966,11.4439655 C8.81982759,11.3646552 8.8112069,11.2336207 8.65862069,11.1112069 C8.57955064,11.0527246 8.49244334,11.005977 8.4,10.9724138 C7.95948276,10.7956897 7.51637931,10.6275862 7.07586207,10.4482759 C6.965638,10.4047114 6.85995845,10.3504279 6.76034483,10.2862069 C6.48362069,10.1043103 6.45,9.90431034 6.70086207,9.68275862 C7.69224138,8.81034483 8.85086207,8.55431034 9.87672414,9.7137931 C10.1948276,10.0732759 10.4103448,10.5206897 10.7103448,10.8974138 C10.9457405,11.1977539 11.21701,11.4681549 11.5181034,11.7025862 C11.682709,11.7988315 11.8831192,11.8116168 12.0586207,11.737069 C12.2478093,11.6050988 12.2964966,11.3459446 12.1681034,11.1543103 C12.079954,10.9661803 11.9721717,10.7878915 11.8465517,10.6224138 C11.5212775,10.1785664 11.4007143,9.61707119 11.5151137,9.07881793 C11.6295131,8.54056466 11.9680175,8.07663884 12.4456897,7.80344828 C12.8845438,7.63040607 13.2292524,7.27911666 13.3939655,6.83706897 C13.1767241,6.89655172 13.0172414,6.9362069 12.862931,6.98275862 C11.9956897,7.25086207 12.6,6.60517241 12.9982759,6.49310345 C13.2405172,6.42413793 12.7810345,6.2387931 12.7810345,6.2387931 C12.7922414,6.21982759 13.0862069,6.1362069 13.412931,5.99741379 C13.6411593,5.90928436 13.8561215,5.79005432 14.0517241,5.64310345 C14.1594828,5.51339825 14.2429999,5.36534532 14.2982759,5.20603448 L14.237931,5.1362069 C14.0086207,5.16724138 13.7793103,5.20086207 13.5482759,5.22241379 C13.1594828,5.26637931 13.0681034,5.18965517 13.0310345,4.79827586 C13.0208105,4.67218283 12.9453644,4.56062789 12.8321428,4.50419344 C12.7189212,4.44775898 12.5844264,4.45467055 12.4775862,4.52241379 C12.3051724,4.61551724 12.1560345,4.75086207 11.9896552,4.85862069 C11.8592027,4.98766808 11.6670391,5.03194144 11.4932715,4.97298458 C11.319504,4.91402772 11.1939563,4.7619595 11.1689655,4.58017241 C11.0827586,4.32155172 10.9543103,4.27758621 10.7198276,4.41982759 C10.6017241,4.49137931 10.5034483,4.59224138 10.3836207,4.66293103 C10.1896514,4.77781698 9.98634587,4.8761534 9.77586207,4.95689655 C9.58131944,5.07834612 9.32672437,5.03542021 9.18275862,4.85689655 C9.06095725,4.63497425 9.1372684,4.35643854 9.35517241,4.22758621 C9.6000901,4.0453711 9.85958637,3.88361843 10.1310345,3.74396552 C10.5086207,3.53189655 10.9068966,3.35517241 11.2732759,3.12413793 C11.5413221,2.96659752 11.6650339,2.64480384 11.5715517,2.34827586 C11.5630842,2.2300514 11.491415,2.12562205 11.384145,2.07520514 C11.2768749,2.02478824 11.1507376,2.0362485 11.0543103,2.10517241 C10.8422414,2.21034483 10.6568966,2.375 10.4387931,2.45948276 C10.2680486,2.51563567 10.0856195,2.52633184 9.90948276,2.49051724 C9.82450212,2.41959432 9.77604335,2.31412524 9.77758621,2.20344828 C9.80918736,2.11737959 9.88160467,2.05272128 9.97068966,2.03103448 C10.4974138,1.94482759 11.0267241,1.88017241 11.5568966,1.81982759 C11.639647,1.81728796 11.719465,1.85059781 11.7758621,1.9112069 C12.1305073,2.31606375 12.6038288,2.59872931 13.1284483,2.71896552 C13.5594828,2.84655172 13.6224138,2.7862069 13.6818966,2.33362069 C14.2095635,2.08190135 14.8199478,2.06902802 15.3577586,2.29827586 C15.6665218,2.50003047 15.9529085,2.73411043 16.212069,2.99655172 C16.2583564,3.12241091 16.2562056,3.26098278 16.2060345,3.38534483 C16.1646552,3.55775862 16.0706897,3.71465517 16.0267241,3.88534483 C15.979749,4.0297447 16.0090684,4.18810867 16.1046263,4.30612003 C16.2001842,4.42413139 16.348988,4.48574476 16.5,4.46982759 C16.6086207,4.46982759 16.7163793,4.44568966 16.8258621,4.43965517 C16.9443791,4.40432026 17.0726891,4.43893148 17.1573586,4.52907531 C17.2420281,4.61921913 17.2685433,4.74944334 17.2258621,4.86551724 C17.1844828,5.31810345 17.2603448,5.37241379 17.7181034,5.29655172 C17.9540325,5.27925835 18.1853847,5.36806977 18.3491379,5.5387931 C18.7784483,5.86206897 19.1034483,5.74224138 19.2241379,5.21551724 C19.237931,5.15862069 19.2362069,5.09741379 19.2474138,5.04310345 C19.2965517,4.80689655 19.4301724,4.74655172 19.5922414,4.9137931 C19.9310345,5.27155172 20.2482759,5.64913793 20.5913793,6.03448276 C20.2796148,6.32886019 20.1631461,6.77532331 20.2913793,7.18448276 C20.359628,7.60594427 20.2875423,8.03815582 20.0862069,8.41465517 C19.9030592,8.78549647 19.7466269,9.16894291 19.6181034,9.56206897 C19.506005,9.77655877 19.5163223,10.0344584 19.6451965,10.239308 C19.7740707,10.4441577 20.0020881,10.5650986 20.2439655,10.5568966 C20.4514814,10.5437582 20.6531391,10.628745 20.7886542,10.7864508 C20.9241694,10.9441565 20.9778397,11.1563076 20.9336207,11.3594828 C20.9461785,12.0718311 21.3753837,12.7105776 22.0301724,12.9913793 C22.1793103,13.0655172 22.3387931,13.1224138 22.4913793,13.1853448 C22.401004,14.4302818 22.0658675,15.6451513 21.5051724,16.7603448 L21.5034483,16.7603448 Z" id="Forma_1"></path>
                        </g>
                    </g>
                </g>
            </g>
        </g>
    </g>
</svg>